<svg width="1473" height="526" viewBox="0 0 1473 526" fill="none" xmlns="http://www.w3.org/2000/svg">
<circle cx="600" cy="263" r="260" stroke="#E3D3D3" stroke-width="6"/>
<circle cx="935" cy="263" r="260" stroke="#E92020" stroke-width="6"/>
<path d="M473.016 251.76V265.936C473.016 267.621 473.453 268.891 474.328 269.744C475.224 270.597 476.461 271.024 478.04 271.024C479.64 271.024 480.877 270.597 481.752 269.744C482.648 268.891 483.096 267.621 483.096 265.936V251.76H486.744V265.872C486.744 267.685 486.349 269.221 485.56 270.48C484.771 271.739 483.715 272.677 482.392 273.296C481.069 273.915 479.608 274.224 478.008 274.224C476.408 274.224 474.947 273.915 473.624 273.296C472.323 272.677 471.288 271.739 470.52 270.48C469.752 269.221 469.368 267.685 469.368 265.872V251.76H473.016ZM497.894 274.288C496.507 274.288 495.259 274.043 494.15 273.552C493.062 273.04 492.198 272.357 491.558 271.504C490.918 270.629 490.576 269.659 490.534 268.592H494.31C494.374 269.339 494.726 269.968 495.366 270.48C496.027 270.971 496.848 271.216 497.83 271.216C498.854 271.216 499.643 271.024 500.198 270.64C500.774 270.235 501.062 269.723 501.062 269.104C501.062 268.443 500.742 267.952 500.102 267.632C499.483 267.312 498.491 266.96 497.126 266.576C495.803 266.213 494.726 265.861 493.894 265.52C493.062 265.179 492.336 264.656 491.718 263.952C491.12 263.248 490.822 262.32 490.822 261.168C490.822 260.229 491.099 259.376 491.654 258.608C492.208 257.819 492.998 257.2 494.022 256.752C495.067 256.304 496.262 256.08 497.606 256.08C499.611 256.08 501.222 256.592 502.438 257.616C503.675 258.619 504.336 259.995 504.422 261.744H500.774C500.71 260.955 500.39 260.325 499.814 259.856C499.238 259.387 498.459 259.152 497.478 259.152C496.518 259.152 495.782 259.333 495.27 259.696C494.758 260.059 494.502 260.539 494.502 261.136C494.502 261.605 494.672 262 495.014 262.32C495.355 262.64 495.771 262.896 496.262 263.088C496.752 263.259 497.478 263.483 498.438 263.76C499.718 264.101 500.763 264.453 501.574 264.816C502.406 265.157 503.12 265.669 503.718 266.352C504.315 267.035 504.624 267.941 504.646 269.072C504.646 270.075 504.368 270.971 503.814 271.76C503.259 272.549 502.47 273.168 501.446 273.616C500.443 274.064 499.259 274.288 497.894 274.288ZM524.748 264.752C524.748 265.413 524.705 266.011 524.62 266.544H511.148C511.254 267.952 511.777 269.083 512.716 269.936C513.654 270.789 514.806 271.216 516.172 271.216C518.134 271.216 519.521 270.395 520.332 268.752H524.267C523.734 270.373 522.764 271.707 521.356 272.752C519.969 273.776 518.241 274.288 516.172 274.288C514.486 274.288 512.972 273.915 511.628 273.168C510.305 272.4 509.26 271.333 508.492 269.968C507.745 268.581 507.372 266.981 507.372 265.168C507.372 263.355 507.734 261.765 508.46 260.4C509.206 259.013 510.241 257.947 511.564 257.2C512.908 256.453 514.444 256.08 516.172 256.08C517.836 256.08 519.318 256.443 520.62 257.168C521.921 257.893 522.934 258.917 523.66 260.24C524.385 261.541 524.748 263.045 524.748 264.752ZM520.94 263.6C520.918 262.256 520.438 261.179 519.5 260.368C518.561 259.557 517.398 259.152 516.012 259.152C514.753 259.152 513.676 259.557 512.78 260.368C511.884 261.157 511.35 262.235 511.18 263.6H520.94ZM531.986 258.928C532.519 258.032 533.223 257.339 534.098 256.848C534.994 256.336 536.05 256.08 537.266 256.08V259.856H536.338C534.908 259.856 533.82 260.219 533.074 260.944C532.348 261.669 531.986 262.928 531.986 264.72V274H528.338V256.368H531.986V258.928ZM547.019 274.288C545.632 274.288 544.384 274.043 543.275 273.552C542.187 273.04 541.323 272.357 540.683 271.504C540.043 270.629 539.701 269.659 539.659 268.592H543.435C543.499 269.339 543.851 269.968 544.491 270.48C545.152 270.971 545.973 271.216 546.955 271.216C547.979 271.216 548.768 271.024 549.323 270.64C549.899 270.235 550.187 269.723 550.187 269.104C550.187 268.443 549.867 267.952 549.227 267.632C548.608 267.312 547.616 266.96 546.251 266.576C544.928 266.213 543.851 265.861 543.019 265.52C542.187 265.179 541.461 264.656 540.843 263.952C540.245 263.248 539.947 262.32 539.947 261.168C539.947 260.229 540.224 259.376 540.779 258.608C541.333 257.819 542.123 257.2 543.147 256.752C544.192 256.304 545.387 256.08 546.731 256.08C548.736 256.08 550.347 256.592 551.563 257.616C552.8 258.619 553.461 259.995 553.547 261.744H549.899C549.835 260.955 549.515 260.325 548.939 259.856C548.363 259.387 547.584 259.152 546.603 259.152C545.643 259.152 544.907 259.333 544.395 259.696C543.883 260.059 543.627 260.539 543.627 261.136C543.627 261.605 543.797 262 544.139 262.32C544.48 262.64 544.896 262.896 545.387 263.088C545.877 263.259 546.603 263.483 547.563 263.76C548.843 264.101 549.888 264.453 550.699 264.816C551.531 265.157 552.245 265.669 552.843 266.352C553.44 267.035 553.749 267.941 553.771 269.072C553.771 270.075 553.493 270.971 552.939 271.76C552.384 272.549 551.595 273.168 550.571 273.616C549.568 274.064 548.384 274.288 547.019 274.288Z" fill="white"/>
<path d="M953.88 251.76L946.52 265.936V274H942.872V265.936L935.48 251.76H939.544L944.696 262.672L949.848 251.76H953.88ZM964.423 274.288C962.759 274.288 961.255 273.915 959.911 273.168C958.567 272.4 957.511 271.333 956.743 269.968C955.975 268.581 955.591 266.981 955.591 265.168C955.591 263.376 955.986 261.787 956.775 260.4C957.564 259.013 958.642 257.947 960.007 257.2C961.372 256.453 962.898 256.08 964.583 256.08C966.268 256.08 967.794 256.453 969.159 257.2C970.524 257.947 971.602 259.013 972.391 260.4C973.18 261.787 973.575 263.376 973.575 265.168C973.575 266.96 973.17 268.549 972.359 269.936C971.548 271.323 970.439 272.4 969.031 273.168C967.644 273.915 966.108 274.288 964.423 274.288ZM964.423 271.12C965.362 271.12 966.236 270.896 967.047 270.448C967.879 270 968.551 269.328 969.063 268.432C969.575 267.536 969.831 266.448 969.831 265.168C969.831 263.888 969.586 262.811 969.095 261.936C968.604 261.04 967.954 260.368 967.143 259.92C966.332 259.472 965.458 259.248 964.519 259.248C963.58 259.248 962.706 259.472 961.895 259.92C961.106 260.368 960.476 261.04 960.007 261.936C959.538 262.811 959.303 263.888 959.303 265.168C959.303 267.067 959.783 268.539 960.743 269.584C961.724 270.608 962.951 271.12 964.423 271.12ZM993.149 256.368V274H989.501V271.92C988.925 272.645 988.168 273.221 987.229 273.648C986.312 274.053 985.331 274.256 984.285 274.256C982.899 274.256 981.651 273.968 980.541 273.392C979.453 272.816 978.589 271.963 977.949 270.832C977.331 269.701 977.021 268.336 977.021 266.736V256.368H980.637V266.192C980.637 267.771 981.032 268.987 981.821 269.84C982.611 270.672 983.688 271.088 985.053 271.088C986.419 271.088 987.496 270.672 988.285 269.84C989.096 268.987 989.501 267.771 989.501 266.192V256.368H993.149ZM1012.33 251.76V254.736H1006.41V274H1002.76V254.736H996.811V251.76H1012.33ZM1031.99 256.368V274H1028.35V271.92C1027.77 272.645 1027.01 273.221 1026.07 273.648C1025.16 274.053 1024.17 274.256 1023.13 274.256C1021.74 274.256 1020.49 273.968 1019.39 273.392C1018.3 272.816 1017.43 271.963 1016.79 270.832C1016.17 269.701 1015.87 268.336 1015.87 266.736V256.368H1019.48V266.192C1019.48 267.771 1019.88 268.987 1020.67 269.84C1021.45 270.672 1022.53 271.088 1023.9 271.088C1025.26 271.088 1026.34 270.672 1027.13 269.84C1027.94 268.987 1028.35 267.771 1028.35 266.192V256.368H1031.99ZM1040.45 258.992C1041.07 258.139 1041.92 257.445 1042.98 256.912C1044.07 256.357 1045.28 256.08 1046.6 256.08C1048.16 256.08 1049.56 256.453 1050.82 257.2C1052.08 257.947 1053.07 259.013 1053.8 260.4C1054.52 261.765 1054.89 263.333 1054.89 265.104C1054.89 266.875 1054.52 268.464 1053.8 269.872C1053.07 271.259 1052.07 272.347 1050.79 273.136C1049.53 273.904 1048.13 274.288 1046.6 274.288C1045.23 274.288 1044.02 274.021 1042.95 273.488C1041.9 272.955 1041.07 272.272 1040.45 271.44V274H1036.81V250.32H1040.45V258.992ZM1051.17 265.104C1051.17 263.888 1050.92 262.843 1050.41 261.968C1049.92 261.072 1049.25 260.4 1048.42 259.952C1047.61 259.483 1046.74 259.248 1045.8 259.248C1044.88 259.248 1044.01 259.483 1043.17 259.952C1042.36 260.421 1041.7 261.104 1041.19 262C1040.7 262.896 1040.45 263.952 1040.45 265.168C1040.45 266.384 1040.7 267.451 1041.19 268.368C1041.7 269.264 1042.36 269.947 1043.17 270.416C1044.01 270.885 1044.88 271.12 1045.8 271.12C1046.74 271.12 1047.61 270.885 1048.42 270.416C1049.25 269.925 1049.92 269.221 1050.41 268.304C1050.92 267.387 1051.17 266.32 1051.17 265.104ZM1074.65 264.752C1074.65 265.413 1074.61 266.011 1074.53 266.544H1061.05C1061.16 267.952 1061.68 269.083 1062.62 269.936C1063.56 270.789 1064.71 271.216 1066.08 271.216C1068.04 271.216 1069.43 270.395 1070.24 268.752H1074.17C1073.64 270.373 1072.67 271.707 1071.26 272.752C1069.88 273.776 1068.15 274.288 1066.08 274.288C1064.39 274.288 1062.88 273.915 1061.53 273.168C1060.21 272.4 1059.17 271.333 1058.4 269.968C1057.65 268.581 1057.28 266.981 1057.28 265.168C1057.28 263.355 1057.64 261.765 1058.37 260.4C1059.11 259.013 1060.15 257.947 1061.47 257.2C1062.81 256.453 1064.35 256.08 1066.08 256.08C1067.74 256.08 1069.22 256.443 1070.53 257.168C1071.83 257.893 1072.84 258.917 1073.57 260.24C1074.29 261.541 1074.65 263.045 1074.65 264.752ZM1070.85 263.6C1070.82 262.256 1070.34 261.179 1069.41 260.368C1068.47 259.557 1067.3 259.152 1065.92 259.152C1064.66 259.152 1063.58 259.557 1062.69 260.368C1061.79 261.157 1061.26 262.235 1061.09 263.6H1070.85Z" fill="white"/>
<path d="M1274.51 206.32V216.952C1274.51 218.216 1274.84 219.168 1275.5 219.808C1276.17 220.448 1277.1 220.768 1278.28 220.768C1279.48 220.768 1280.41 220.448 1281.06 219.808C1281.74 219.168 1282.07 218.216 1282.07 216.952V206.32H1284.81V216.904C1284.81 218.264 1284.51 219.416 1283.92 220.36C1283.33 221.304 1282.54 222.008 1281.54 222.472C1280.55 222.936 1279.46 223.168 1278.26 223.168C1277.06 223.168 1275.96 222.936 1274.97 222.472C1273.99 222.008 1273.22 221.304 1272.64 220.36C1272.06 219.416 1271.78 218.264 1271.78 216.904V206.32H1274.51ZM1293.17 223.216C1292.13 223.216 1291.19 223.032 1290.36 222.664C1289.55 222.28 1288.9 221.768 1288.42 221.128C1287.94 220.472 1287.68 219.744 1287.65 218.944H1290.48C1290.53 219.504 1290.79 219.976 1291.27 220.36C1291.77 220.728 1292.39 220.912 1293.12 220.912C1293.89 220.912 1294.48 220.768 1294.9 220.48C1295.33 220.176 1295.55 219.792 1295.55 219.328C1295.55 218.832 1295.31 218.464 1294.83 218.224C1294.36 217.984 1293.62 217.72 1292.59 217.432C1291.6 217.16 1290.79 216.896 1290.17 216.64C1289.55 216.384 1289 215.992 1288.54 215.464C1288.09 214.936 1287.87 214.24 1287.87 213.376C1287.87 212.672 1288.07 212.032 1288.49 211.456C1288.91 210.864 1289.5 210.4 1290.27 210.064C1291.05 209.728 1291.95 209.56 1292.95 209.56C1294.46 209.56 1295.67 209.944 1296.58 210.712C1297.51 211.464 1298 212.496 1298.07 213.808H1295.33C1295.28 213.216 1295.04 212.744 1294.61 212.392C1294.18 212.04 1293.59 211.864 1292.86 211.864C1292.14 211.864 1291.59 212 1291.2 212.272C1290.82 212.544 1290.63 212.904 1290.63 213.352C1290.63 213.704 1290.75 214 1291.01 214.24C1291.27 214.48 1291.58 214.672 1291.95 214.816C1292.31 214.944 1292.86 215.112 1293.58 215.32C1294.54 215.576 1295.32 215.84 1295.93 216.112C1296.55 216.368 1297.09 216.752 1297.54 217.264C1297.99 217.776 1298.22 218.456 1298.23 219.304C1298.23 220.056 1298.03 220.728 1297.61 221.32C1297.19 221.912 1296.6 222.376 1295.83 222.712C1295.08 223.048 1294.19 223.216 1293.17 223.216ZM1313.31 216.064C1313.31 216.56 1313.28 217.008 1313.21 217.408H1303.11C1303.19 218.464 1303.58 219.312 1304.29 219.952C1304.99 220.592 1305.85 220.912 1306.88 220.912C1308.35 220.912 1309.39 220.296 1310 219.064H1312.95C1312.55 220.28 1311.82 221.28 1310.77 222.064C1309.73 222.832 1308.43 223.216 1306.88 223.216C1305.61 223.216 1304.48 222.936 1303.47 222.376C1302.48 221.8 1301.69 221 1301.12 219.976C1300.56 218.936 1300.28 217.736 1300.28 216.376C1300.28 215.016 1300.55 213.824 1301.09 212.8C1301.65 211.76 1302.43 210.96 1303.42 210.4C1304.43 209.84 1305.58 209.56 1306.88 209.56C1308.13 209.56 1309.24 209.832 1310.21 210.376C1311.19 210.92 1311.95 211.688 1312.49 212.68C1313.04 213.656 1313.31 214.784 1313.31 216.064ZM1310.45 215.2C1310.44 214.192 1310.08 213.384 1309.37 212.776C1308.67 212.168 1307.8 211.864 1306.76 211.864C1305.81 211.864 1305.01 212.168 1304.33 212.776C1303.66 213.368 1303.26 214.176 1303.13 215.2H1310.45ZM1318.74 211.696C1319.14 211.024 1319.67 210.504 1320.32 210.136C1321 209.752 1321.79 209.56 1322.7 209.56V212.392H1322C1320.93 212.392 1320.12 212.664 1319.56 213.208C1319.01 213.752 1318.74 214.696 1318.74 216.04V223H1316V209.776H1318.74V211.696ZM1330.01 223.216C1328.97 223.216 1328.04 223.032 1327.21 222.664C1326.39 222.28 1325.74 221.768 1325.26 221.128C1324.78 220.472 1324.53 219.744 1324.49 218.944H1327.33C1327.37 219.504 1327.64 219.976 1328.12 220.36C1328.61 220.728 1329.23 220.912 1329.97 220.912C1330.73 220.912 1331.33 220.768 1331.74 220.48C1332.17 220.176 1332.39 219.792 1332.39 219.328C1332.39 218.832 1332.15 218.464 1331.67 218.224C1331.21 217.984 1330.46 217.72 1329.44 217.432C1328.45 217.16 1327.64 216.896 1327.01 216.64C1326.39 216.384 1325.85 215.992 1325.38 215.464C1324.93 214.936 1324.71 214.24 1324.71 213.376C1324.71 212.672 1324.92 212.032 1325.33 211.456C1325.75 210.864 1326.34 210.4 1327.11 210.064C1327.89 209.728 1328.79 209.56 1329.8 209.56C1331.3 209.56 1332.51 209.944 1333.42 210.712C1334.35 211.464 1334.85 212.496 1334.91 213.808H1332.17C1332.13 213.216 1331.89 212.744 1331.45 212.392C1331.02 212.04 1330.44 211.864 1329.7 211.864C1328.98 211.864 1328.43 212 1328.05 212.272C1327.66 212.544 1327.47 212.904 1327.47 213.352C1327.47 213.704 1327.6 214 1327.85 214.24C1328.11 214.48 1328.42 214.672 1328.79 214.816C1329.16 214.944 1329.7 215.112 1330.42 215.32C1331.38 215.576 1332.17 215.84 1332.77 216.112C1333.4 216.368 1333.93 216.752 1334.38 217.264C1334.83 217.776 1335.06 218.456 1335.08 219.304C1335.08 220.056 1334.87 220.728 1334.45 221.32C1334.04 221.912 1333.45 222.376 1332.68 222.712C1331.93 223.048 1331.04 223.216 1330.01 223.216Z" fill="white"/>
<path d="M15.938 276.276L12.766 272.844C11.986 273.069 11.128 273.182 10.192 273.182C8.51067 273.182 6.95933 272.792 5.538 272.012C4.134 271.215 3.016 270.114 2.184 268.71C1.36933 267.289 0.962 265.694 0.962 263.926C0.962 262.158 1.36933 260.572 2.184 259.168C3.016 257.764 4.134 256.672 5.538 255.892C6.95933 255.095 8.51067 254.696 10.192 254.696C11.8907 254.696 13.442 255.095 14.846 255.892C16.2673 256.672 17.3853 257.764 18.2 259.168C19.0147 260.572 19.422 262.158 19.422 263.926C19.422 265.59 19.058 267.098 18.33 268.45C17.6193 269.785 16.6313 270.859 15.366 271.674L19.708 276.276H15.938ZM4.004 263.926C4.004 265.261 4.264 266.439 4.784 267.462C5.32133 268.467 6.058 269.247 6.994 269.802C7.93 270.339 8.996 270.608 10.192 270.608C11.388 270.608 12.454 270.339 13.39 269.802C14.326 269.247 15.054 268.467 15.574 267.462C16.1113 266.439 16.38 265.261 16.38 263.926C16.38 262.591 16.1113 261.421 15.574 260.416C15.054 259.411 14.326 258.639 13.39 258.102C12.454 257.565 11.388 257.296 10.192 257.296C8.996 257.296 7.93 257.565 6.994 258.102C6.058 258.639 5.32133 259.411 4.784 260.416C4.264 261.421 4.004 262.591 4.004 263.926ZM35.3888 258.674V273H32.4248V271.31C31.9568 271.899 31.3415 272.367 30.5788 272.714C29.8335 273.043 29.0362 273.208 28.1868 273.208C27.0602 273.208 26.0462 272.974 25.1448 272.506C24.2608 272.038 23.5588 271.345 23.0388 270.426C22.5362 269.507 22.2848 268.398 22.2848 267.098V258.674H25.2228V266.656C25.2228 267.939 25.5435 268.927 26.1848 269.62C26.8262 270.296 27.7015 270.634 28.8108 270.634C29.9202 270.634 30.7955 270.296 31.4368 269.62C32.0955 268.927 32.4248 267.939 32.4248 266.656V258.674H35.3888ZM38.3116 265.772C38.3116 264.333 38.6063 263.059 39.1956 261.95C39.8023 260.841 40.6169 259.983 41.6396 259.376C42.6796 258.752 43.8236 258.44 45.0716 258.44C46.1983 258.44 47.1776 258.665 48.0096 259.116C48.8589 259.549 49.5349 260.095 50.0376 260.754V258.674H53.0276V273H50.0376V270.868C49.5349 271.544 48.8503 272.107 47.9836 272.558C47.1169 273.009 46.1289 273.234 45.0196 273.234C43.7889 273.234 42.6623 272.922 41.6396 272.298C40.6169 271.657 39.8023 270.773 39.1956 269.646C38.6063 268.502 38.3116 267.211 38.3116 265.772ZM50.0376 265.824C50.0376 264.836 49.8296 263.978 49.4136 263.25C49.0149 262.522 48.4863 261.967 47.8276 261.586C47.1689 261.205 46.4583 261.014 45.6956 261.014C44.9329 261.014 44.2223 261.205 43.5636 261.586C42.9049 261.95 42.3676 262.496 41.9516 263.224C41.5529 263.935 41.3536 264.784 41.3536 265.772C41.3536 266.76 41.5529 267.627 41.9516 268.372C42.3676 269.117 42.9049 269.689 43.5636 270.088C44.2396 270.469 44.9503 270.66 45.6956 270.66C46.4583 270.66 47.1689 270.469 47.8276 270.088C48.4863 269.707 49.0149 269.152 49.4136 268.424C49.8296 267.679 50.0376 266.812 50.0376 265.824ZM59.8847 253.76V273H56.9207V253.76H59.8847ZM65.2842 256.776C64.7468 256.776 64.2962 256.594 63.9322 256.23C63.5682 255.866 63.3862 255.415 63.3862 254.878C63.3862 254.341 63.5682 253.89 63.9322 253.526C64.2962 253.162 64.7468 252.98 65.2842 252.98C65.8042 252.98 66.2462 253.162 66.6102 253.526C66.9742 253.89 67.1562 254.341 67.1562 254.878C67.1562 255.415 66.9742 255.866 66.6102 256.23C66.2462 256.594 65.8042 256.776 65.2842 256.776ZM66.7402 258.674V273H63.7762V258.674H66.7402ZM74.0896 261.092V269.022C74.0896 269.559 74.211 269.949 74.4536 270.192C74.7136 270.417 75.147 270.53 75.7536 270.53H77.5736V273H75.2336C73.899 273 72.8763 272.688 72.1656 272.064C71.455 271.44 71.0996 270.426 71.0996 269.022V261.092H69.4096V258.674H71.0996V255.112H74.0896V258.674H77.5736V261.092H74.0896ZM93.2015 258.674L84.4135 279.734H81.3455L84.2575 272.766L78.6155 258.674H81.9175L85.9475 269.594L90.1335 258.674H93.2015ZM113.866 254.93V257.348H109.056V273H106.092V257.348H101.256V254.93H113.866ZM118.376 256.776C117.839 256.776 117.388 256.594 117.024 256.23C116.66 255.866 116.478 255.415 116.478 254.878C116.478 254.341 116.66 253.89 117.024 253.526C117.388 253.162 117.839 252.98 118.376 252.98C118.896 252.98 119.338 253.162 119.702 253.526C120.066 253.89 120.248 254.341 120.248 254.878C120.248 255.415 120.066 255.866 119.702 256.23C119.338 256.594 118.896 256.776 118.376 256.776ZM119.832 258.674V273H116.868V258.674H119.832ZM141.065 258.44C142.192 258.44 143.197 258.674 144.081 259.142C144.983 259.61 145.685 260.303 146.187 261.222C146.707 262.141 146.967 263.25 146.967 264.55V273H144.029V264.992C144.029 263.709 143.709 262.73 143.067 262.054C142.426 261.361 141.551 261.014 140.441 261.014C139.332 261.014 138.448 261.361 137.789 262.054C137.148 262.73 136.827 263.709 136.827 264.992V273H133.889V264.992C133.889 263.709 133.569 262.73 132.927 262.054C132.286 261.361 131.411 261.014 130.301 261.014C129.192 261.014 128.308 261.361 127.649 262.054C127.008 262.73 126.687 263.709 126.687 264.992V273H123.723V258.674H126.687V260.312C127.173 259.723 127.788 259.263 128.533 258.934C129.279 258.605 130.076 258.44 130.925 258.44C132.069 258.44 133.092 258.683 133.993 259.168C134.895 259.653 135.588 260.355 136.073 261.274C136.507 260.407 137.183 259.723 138.101 259.22C139.02 258.7 140.008 258.44 141.065 258.44ZM163.869 265.486C163.869 266.023 163.834 266.509 163.765 266.942H152.819C152.906 268.086 153.33 269.005 154.093 269.698C154.856 270.391 155.792 270.738 156.901 270.738C158.496 270.738 159.622 270.071 160.281 268.736H163.479C163.046 270.053 162.257 271.137 161.113 271.986C159.986 272.818 158.582 273.234 156.901 273.234C155.532 273.234 154.301 272.931 153.209 272.324C152.134 271.7 151.285 270.833 150.661 269.724C150.054 268.597 149.751 267.297 149.751 265.824C149.751 264.351 150.046 263.059 150.635 261.95C151.242 260.823 152.082 259.957 153.157 259.35C154.249 258.743 155.497 258.44 156.901 258.44C158.253 258.44 159.458 258.735 160.515 259.324C161.572 259.913 162.396 260.745 162.985 261.82C163.574 262.877 163.869 264.099 163.869 265.486ZM160.775 264.55C160.758 263.458 160.368 262.583 159.605 261.924C158.842 261.265 157.898 260.936 156.771 260.936C155.748 260.936 154.873 261.265 154.145 261.924C153.417 262.565 152.984 263.441 152.845 264.55H160.775Z" fill="white"/>
<path d="M1293.52 291.32L1288.58 308H1285.48L1281.98 295.376L1278.26 308L1275.18 308.024L1270.46 291.32H1273.36L1276.82 304.904L1280.56 291.32H1283.63L1287.11 304.832L1290.59 291.32H1293.52ZM1294.86 301.328C1294.86 300 1295.14 298.824 1295.68 297.8C1296.24 296.776 1296.99 295.984 1297.94 295.424C1298.9 294.848 1299.95 294.56 1301.1 294.56C1302.14 294.56 1303.05 294.768 1303.82 295.184C1304.6 295.584 1305.22 296.088 1305.69 296.696V294.776H1308.45V308H1305.69V306.032C1305.22 306.656 1304.59 307.176 1303.79 307.592C1302.99 308.008 1302.08 308.216 1301.06 308.216C1299.92 308.216 1298.88 307.928 1297.94 307.352C1296.99 306.76 1296.24 305.944 1295.68 304.904C1295.14 303.848 1294.86 302.656 1294.86 301.328ZM1305.69 301.376C1305.69 300.464 1305.5 299.672 1305.11 299C1304.74 298.328 1304.26 297.816 1303.65 297.464C1303.04 297.112 1302.38 296.936 1301.68 296.936C1300.98 296.936 1300.32 297.112 1299.71 297.464C1299.1 297.8 1298.61 298.304 1298.22 298.976C1297.86 299.632 1297.67 300.416 1297.67 301.328C1297.67 302.24 1297.86 303.04 1298.22 303.728C1298.61 304.416 1299.1 304.944 1299.71 305.312C1300.34 305.664 1300.99 305.84 1301.68 305.84C1302.38 305.84 1303.04 305.664 1303.65 305.312C1304.26 304.96 1304.74 304.448 1305.11 303.776C1305.5 303.088 1305.69 302.288 1305.69 301.376ZM1315.23 297.008V304.328C1315.23 304.824 1315.35 305.184 1315.57 305.408C1315.81 305.616 1316.21 305.72 1316.77 305.72H1318.45V308H1316.29C1315.06 308 1314.11 307.712 1313.46 307.136C1312.8 306.56 1312.47 305.624 1312.47 304.328V297.008H1310.91V294.776H1312.47V291.488H1315.23V294.776H1318.45V297.008H1315.23ZM1320.06 301.376C1320.06 300.016 1320.33 298.824 1320.88 297.8C1321.44 296.76 1322.2 295.96 1323.18 295.4C1324.16 294.84 1325.28 294.56 1326.54 294.56C1328.14 294.56 1329.46 294.944 1330.5 295.712C1331.56 296.464 1332.27 297.544 1332.64 298.952H1329.68C1329.44 298.296 1329.06 297.784 1328.53 297.416C1328 297.048 1327.34 296.864 1326.54 296.864C1325.42 296.864 1324.52 297.264 1323.85 298.064C1323.2 298.848 1322.87 299.952 1322.87 301.376C1322.87 302.8 1323.2 303.912 1323.85 304.712C1324.52 305.512 1325.42 305.912 1326.54 305.912C1328.12 305.912 1329.17 305.216 1329.68 303.824H1332.64C1332.25 305.168 1331.53 306.24 1330.48 307.04C1329.42 307.824 1328.11 308.216 1326.54 308.216C1325.28 308.216 1324.16 307.936 1323.18 307.376C1322.2 306.8 1321.44 306 1320.88 304.976C1320.33 303.936 1320.06 302.736 1320.06 301.376ZM1342.2 294.56C1343.21 294.56 1344.11 294.776 1344.89 295.208C1345.69 295.64 1346.31 296.28 1346.76 297.128C1347.23 297.976 1347.46 299 1347.46 300.2V308H1344.75V300.608C1344.75 299.424 1344.45 298.52 1343.86 297.896C1343.27 297.256 1342.46 296.936 1341.43 296.936C1340.41 296.936 1339.59 297.256 1338.99 297.896C1338.39 298.52 1338.1 299.424 1338.1 300.608V308H1335.36V290.24H1338.1V296.312C1338.56 295.752 1339.15 295.32 1339.85 295.016C1340.57 294.712 1341.35 294.56 1342.2 294.56ZM1354.14 297.008V304.328C1354.14 304.824 1354.25 305.184 1354.48 305.408C1354.72 305.616 1355.12 305.72 1355.68 305.72H1357.36V308H1355.2C1353.96 308 1353.02 307.712 1352.36 307.136C1351.71 306.56 1351.38 305.624 1351.38 304.328V297.008H1349.82V294.776H1351.38V291.488H1354.14V294.776H1357.36V297.008H1354.14ZM1361.27 293.024C1360.77 293.024 1360.36 292.856 1360.02 292.52C1359.69 292.184 1359.52 291.768 1359.52 291.272C1359.52 290.776 1359.69 290.36 1360.02 290.024C1360.36 289.688 1360.77 289.52 1361.27 289.52C1361.75 289.52 1362.16 289.688 1362.49 290.024C1362.83 290.36 1363 290.776 1363 291.272C1363 291.768 1362.83 292.184 1362.49 292.52C1362.16 292.856 1361.75 293.024 1361.27 293.024ZM1362.61 294.776V308H1359.88V294.776H1362.61ZM1382.21 294.56C1383.25 294.56 1384.18 294.776 1385 295.208C1385.83 295.64 1386.48 296.28 1386.94 297.128C1387.42 297.976 1387.66 299 1387.66 300.2V308H1384.95V300.608C1384.95 299.424 1384.65 298.52 1384.06 297.896C1383.47 297.256 1382.66 296.936 1381.64 296.936C1380.61 296.936 1379.8 297.256 1379.19 297.896C1378.6 298.52 1378.3 299.424 1378.3 300.608V308H1375.59V300.608C1375.59 299.424 1375.29 298.52 1374.7 297.896C1374.11 297.256 1373.3 296.936 1372.28 296.936C1371.25 296.936 1370.44 297.256 1369.83 297.896C1369.24 298.52 1368.94 299.424 1368.94 300.608V308H1366.21V294.776H1368.94V296.288C1369.39 295.744 1369.96 295.32 1370.65 295.016C1371.33 294.712 1372.07 294.56 1372.85 294.56C1373.91 294.56 1374.85 294.784 1375.69 295.232C1376.52 295.68 1377.16 296.328 1377.61 297.176C1378.01 296.376 1378.63 295.744 1379.48 295.28C1380.33 294.8 1381.24 294.56 1382.21 294.56ZM1403.26 301.064C1403.26 301.56 1403.23 302.008 1403.17 302.408H1393.06C1393.14 303.464 1393.54 304.312 1394.24 304.952C1394.94 305.592 1395.81 305.912 1396.83 305.912C1398.3 305.912 1399.34 305.296 1399.95 304.064H1402.9C1402.5 305.28 1401.78 306.28 1400.72 307.064C1399.68 307.832 1398.38 308.216 1396.83 308.216C1395.57 308.216 1394.43 307.936 1393.42 307.376C1392.43 306.8 1391.65 306 1391.07 304.976C1390.51 303.936 1390.23 302.736 1390.23 301.376C1390.23 300.016 1390.5 298.824 1391.05 297.8C1391.61 296.76 1392.38 295.96 1393.38 295.4C1394.38 294.84 1395.54 294.56 1396.83 294.56C1398.08 294.56 1399.19 294.832 1400.17 295.376C1401.14 295.92 1401.9 296.688 1402.45 297.68C1402.99 298.656 1403.26 299.784 1403.26 301.064ZM1400.41 300.2C1400.39 299.192 1400.03 298.384 1399.33 297.776C1398.62 297.168 1397.75 296.864 1396.71 296.864C1395.77 296.864 1394.96 297.168 1394.29 297.776C1393.62 298.368 1393.22 299.176 1393.09 300.2H1400.41Z" fill="white"/>
<path d="M1379.5 231V204.7L1367.1 217.1L1365 215L1381 199L1397 215L1394.9 217.1L1382.5 204.7V231H1379.5Z" fill="white"/>
<path d="M207.5 279V252.7L195.1 265.1L193 263L209 247L225 263L222.9 265.1L210.5 252.7V279H207.5Z" fill="white"/>
<path d="M1447.5 314V287.7L1435.1 300.1L1433 298L1449 282L1465 298L1462.9 300.1L1450.5 287.7V314H1447.5Z" fill="white"/>
</svg>
