<svg width="75" height="141" viewBox="0 0 75 141" fill="none" xmlns="http://www.w3.org/2000/svg">
<path d="M67.4986 51.0051C67.143 50.608 66.6464 50.3654 66.1146 50.3289C65.5828 50.2924 65.0577 50.4648 64.6511 50.8095C64.5696 50.8809 64.4941 50.9589 64.4254 51.0427L57.7033 48.6384L55.2832 51.6201L64.8477 53.9181C65.2174 54.176 65.662 54.3042 66.1122 54.2829C66.5623 54.2615 66.9928 54.0917 67.3363 53.7999C67.5302 53.6321 67.6891 53.4276 67.804 53.1983C67.9189 52.969 67.9875 52.7194 68.0058 52.4636C68.0242 52.2078 67.992 51.9508 67.9111 51.7075C67.8302 51.4641 67.7022 51.239 67.5343 51.0452C67.5226 51.0316 67.5107 51.0183 67.4986 51.0051Z" fill="#A0616A"/>
<path d="M39.7733 126.925L43.4425 126.925L45.1881 112.771L39.7725 112.771L39.7733 126.925Z" fill="#A0616A"/>
<path d="M39.6437 130.753L50.9278 130.753V130.61C50.9277 129.445 50.4649 128.328 49.6413 127.504C48.8176 126.681 47.7005 126.218 46.5357 126.218H46.5354L44.4743 124.654L40.6286 126.218L39.6436 126.218L39.6437 130.753Z" fill="#2F2E41"/>
<path d="M14.0537 120.176L17.0552 122.286L26.6248 111.712L22.1942 108.597L14.0537 120.176Z" fill="#A0616A"/>
<path d="M11.7461 123.232L20.9768 129.723L21.0589 129.606C21.7288 128.653 21.9928 127.473 21.7928 126.325C21.5928 125.178 20.9452 124.157 19.9924 123.487L19.9922 123.487L19.2056 121.022L15.1602 120.089L14.3544 119.523L11.7461 123.232Z" fill="#2F2E41"/>
<path d="M25.1531 56.5106L24.8482 57.1619C22.8441 61.4435 22.3316 66.2297 23.1105 70.8925C23.1684 71.0745 23.1573 71.2714 23.0794 71.4457C22.5964 72.0123 23.3542 74.4736 23.7886 75.848L24.1801 78.2784C24.1801 78.2784 23.5309 80.5356 24.517 80.3697C25.5031 80.2038 24.0347 82.6114 24.9753 83.2146L27.4153 98.3614L17.2354 115.139L21.0057 120.606L36.0871 101.189L36.2756 83.657L38.5378 97.7958L38.7263 120.041L45.5855 119.312L45.3244 95.7221L45.7015 67.9188L41.9311 54.9868L25.1531 56.5106Z" fill="#50A343"/>
<path d="M26.4345 17.299L36.0488 17.4875L37.934 22.2004L41.7044 23.3315L44.9092 31.2492L43.024 56.322L22.4756 58.2072L23.4182 56.1335C23.4182 56.1335 19.6479 56.322 20.9675 55.0024C22.2871 53.6828 24.8224 53.9752 23.5548 52.4151C22.2871 50.855 22.0986 49.7239 22.0986 49.7239L21.533 41.9947L20.1191 25.4994L24.5493 22.0119L26.4345 17.299Z" fill="#B8B7C9"/>
<path d="M16.6338 71.2317C16.3358 70.7898 16.2221 70.2489 16.3167 69.7244C16.4114 69.1998 16.707 68.7328 17.1407 68.4229C17.2298 68.3612 17.3239 68.3071 17.422 68.261L16.7348 61.155L20.2179 59.5377L20.1067 69.3738C20.2664 69.7953 20.282 70.2578 20.1512 70.689C20.0203 71.1203 19.7504 71.4962 19.3835 71.7579C19.1733 71.9048 18.9362 72.0089 18.6858 72.0642C18.4354 72.1195 18.1765 72.125 17.924 72.0802C17.6714 72.0355 17.4302 71.9415 17.214 71.8035C16.9978 71.6655 16.8109 71.4863 16.664 71.2761C16.6537 71.2615 16.6437 71.2467 16.6338 71.2317Z" fill="#A0616A"/>
<path d="M21.8899 25.094C21.8899 25.094 16.2843 24.9851 16.0932 35.337C16.0932 35.337 9.29335 49.5179 13.4482 54.6262L16.137 65.0316L20.8629 64.5901L21.258 55.9826C21.258 55.9826 27.844 46.7231 26.3796 37.8367L21.8899 25.094Z" fill="#B8B7C9"/>
<path d="M41.3271 23.1431C41.3271 23.1431 43.8721 25.311 48.6793 32.0034C48.6793 32.0034 55.843 42.3718 55.0889 46.5192L58.2937 47.4618L59.0478 54.6254L51.2243 52.646C51.2243 52.646 41.1386 44.257 41.5157 40.1096C41.8927 35.9622 41.3271 23.1431 41.3271 23.1431Z" fill="#B8B7C9"/>
<path d="M31.474 15.7812C35.1164 15.7812 38.0692 12.8285 38.0692 9.18608C38.0692 5.54368 35.1164 2.59094 31.474 2.59094C27.8317 2.59094 24.8789 5.54368 24.8789 9.18608C24.8789 12.8285 27.8317 15.7812 31.474 15.7812Z" fill="#A0616A"/>
<path d="M29.5488 9.01365C29.5545 8.94013 29.562 8.86661 29.5714 8.79309C29.5807 8.86738 29.573 8.94279 29.5488 9.01365Z" fill="#2F2E41"/>
<path d="M38.2006 1.47298C38.0026 0.698175 37.2504 0.0402519 36.4549 0.13451C35.9591 0.19295 35.5368 0.511546 35.0806 0.711372C33.8006 1.27126 30.6128 0.0798305 29.2309 0.270236C27.8472 0.462528 26.52 1.82173 26.9555 3.1489C23.3713 3.53042 21.8334 6.69403 23.0985 10.1429C24.0878 12.8401 27.8472 15.51 30.7146 15.6966C30.362 14.0339 28.3204 12.1732 27.9679 10.5124C27.8411 10.0672 27.8071 9.60072 27.868 9.14185C27.9019 8.91302 28.0035 8.69956 28.1597 8.52891C28.3159 8.35826 28.5196 8.23821 28.7446 8.18418C28.9337 8.1638 29.1235 8.21502 29.2767 8.32774C29.4299 8.44046 29.5353 8.6065 29.5721 8.7931C29.6425 8.28228 29.8391 7.79706 30.1441 7.38131C30.4492 6.96556 30.853 6.63239 31.3192 6.41195C31.7853 6.19151 32.2991 6.09073 32.8139 6.11874C33.3288 6.14675 33.8286 6.30266 34.2681 6.57236L33.3538 5.32815C34.5988 5.91009 35.9839 6.1246 37.3466 5.94648C37.3798 5.83018 37.3907 5.70865 37.3786 5.58831C37.3684 5.46412 37.3262 5.3447 37.2562 5.24163C37.1862 5.13857 37.0907 5.05537 36.979 5.00013C37.1971 5.0588 37.4011 5.16104 37.5787 5.30068C37.7562 5.44032 37.9036 5.61448 38.0121 5.81264C38.8017 5.63255 39.4972 5.16735 39.9651 4.50623C40.4024 3.83509 38.3985 2.24778 38.2006 1.47298Z" fill="#2F2E41"/>
<path d="M72.1062 46.9092H61.8007C61.2751 46.9092 60.771 47.118 60.3994 47.4896C60.0277 47.8613 59.8189 48.3654 59.8189 48.891V50.2593C59.8189 50.7849 60.0277 51.289 60.3994 51.6607C60.771 52.0323 61.2751 52.2411 61.8007 52.2411H65.7399L64.3159 65.7939C64.0657 65.9489 63.8532 66.1579 63.694 66.4055C63.5348 66.6531 63.433 66.9332 63.3958 67.2252L62.0874 77.4473C62.042 77.8015 62.0931 78.1615 62.2354 78.489C62.3778 78.8166 62.606 79.0996 62.8959 79.3081L58.5233 120.924L52.2689 129.96H1.41285C1.2026 129.96 1.00097 130.044 0.852305 130.192C0.70364 130.341 0.620117 130.543 0.620117 130.753C0.620117 130.963 0.70364 131.165 0.852305 131.314C1.00097 131.462 1.2026 131.546 1.41285 131.546H5.3747C4.49221 132.206 3.84007 133.128 3.51072 134.18C3.18138 135.232 3.19152 136.362 3.53972 137.408C3.88793 138.454 4.55653 139.363 5.45075 140.008C6.34497 140.653 7.41946 141 8.52191 141C9.62436 141 10.6988 140.653 11.5931 140.008C12.4873 139.363 13.1559 138.454 13.5041 137.408C13.8523 136.362 13.8624 135.232 13.5331 134.18C13.2037 133.128 12.5516 132.206 11.6691 131.546H52.6843C52.8125 131.546 52.9388 131.515 53.0523 131.455C53.1658 131.396 53.2632 131.309 53.3362 131.204L58.4977 123.747V130.552C57.1878 130.743 55.9984 131.422 55.1678 132.453C54.3372 133.484 53.9266 134.79 54.0182 136.111C54.1098 137.432 54.6969 138.669 55.6619 139.575C56.6268 140.482 57.8985 140.99 59.2223 140.999C60.5461 141.007 61.8243 140.515 62.8011 139.622C63.7778 138.728 64.3809 137.499 64.4898 136.179C64.5986 134.86 64.205 133.548 63.3879 132.507C62.5708 131.465 61.3905 130.771 60.0831 130.562V121.25L64.4554 79.638C64.8592 79.5544 65.2269 79.3469 65.5072 79.0444C65.7875 78.7419 65.9664 78.3595 66.019 77.9505L67.3274 67.7284C67.3866 67.2633 67.279 66.7922 67.0235 66.399C66.7681 66.0058 66.3814 65.716 65.9324 65.5811L67.334 52.2411H72.1062C72.6318 52.2411 73.1359 52.0323 73.5075 51.6607C73.8792 51.289 74.088 50.7849 74.088 50.2593V48.891C74.088 48.3654 73.8792 47.8613 73.5075 47.4896C73.1359 47.118 72.6318 46.9092 72.1062 46.9092Z" fill="#E3E3E3"/>
</svg>
